<?xml version="1.0" encoding="iso-8859-1"?>

<!DOCTYPE svg PUBLIC "-//W3C//DTD SVG 1.1//EN" "http://www.w3.org/Graphics/SVG/1.1/DTD/svg11.dtd">
<!-- Uploaded to: SVG Repo, www.svgrepo.com, Generator: SVG Repo Mixer Tools -->
<svg fill="#000000" version="1.1" id="Layer_1" xmlns="http://www.w3.org/2000/svg" xmlns:xlink="http://www.w3.org/1999/xlink" 
	 width="800px" height="800px" viewBox="0 0 40.445 55.844"
	 xml:space="preserve">
<g>
	<path d="M16.286,45.691L4.848,46.755l0.359,3.874c0.03,0.331,0.089,0.652,0.173,0.964c0.712,2.652,3.25,4.487,6.075,4.226
		c2.829-0.262,4.985-2.534,5.192-5.272c0.031-0.323,0.026-0.649-0.003-0.979L16.286,45.691z"/>
	<path d="M5.462,44.225l9.477-0.879c0.25-0.111,1.024-0.184,0.459-1.609c-0.568-1.424-1.453-6.235-0.781-10.119v-0.002
		c0.757-2.662,1.029-6.455,0.528-11.859c-0.46-4.937-3.148-12.397-7.403-12.001c-4.252,0.396-8.023,9.151-7.725,14.366
		c0.262,2.806,1.117,6.693,2.425,9.882c0,0,2.414,7.757,1.978,10.146C4.014,44.368,5.461,44.227,5.462,44.225z"/>
	<path d="M24.842,42.116c-0.019,0.333-0.009,0.659,0.032,0.979c0.311,2.729,2.547,4.92,5.385,5.079
		c2.833,0.156,5.3-1.772,5.915-4.448c0.072-0.315,0.118-0.638,0.138-0.971l0.215-3.883l-11.467-0.641L24.842,42.116z"/>
	<path d="M40.444,14.077c0.106-5.223-3.984-13.833-8.249-14.071c-4.267-0.237-6.677,7.316-6.954,12.267
		c-0.302,5.418,0.112,9.2,0.966,11.831l-0.001,0.005c0.816,3.854,0.109,8.696-0.405,10.141s0.265,1.488,0.519,1.587l9.503,0.531
		c-0.001-0.001,1.451,0.088,0.963-2.113c-0.523-2.375,1.603-10.21,1.603-10.21C39.575,20.808,40.285,16.89,40.444,14.077z"/>
</g>
</svg>