<?xml version="1.0" encoding="iso-8859-1"?>
<!-- Uploaded to: SVG Repo, www.svgrepo.com, Generator: SVG Repo Mixer Tools -->
<svg height="800px" width="800px" version="1.1" id="Capa_1" xmlns="http://www.w3.org/2000/svg" xmlns:xlink="http://www.w3.org/1999/xlink" 
	 viewBox="0 0 470 470" xml:space="preserve">
<g>
	<path style="fill:#AE8B81;" d="M219.82,54.276c-18.334,4.806-33.256,18.105-40.312,35.42
		C195.213,80.844,208.997,68.733,219.82,54.276z"/>
	<path style="fill:#AE8B81;" d="M250.178,54.276c10.824,14.457,24.608,26.569,40.314,35.421
		C283.436,72.382,268.513,59.082,250.178,54.276z"/>
	<path style="fill:#F6E3DE;" d="M294.789,108.648C270.774,97.867,249.979,80.522,235,58.87
		c-14.98,21.653-35.775,38.997-59.788,49.779c-0.07,1.185-0.116,2.377-0.116,3.58c0,33.032,26.874,59.905,59.905,59.905
		s59.905-26.874,59.905-59.905C294.905,111.025,294.859,109.834,294.789,108.648z M217.521,121.03h-7.368
		c-4.142,0-7.5-3.358-7.5-7.5s3.358-7.5,7.5-7.5h7.368c4.142,0,7.5,3.358,7.5,7.5S221.663,121.03,217.521,121.03z M259.848,121.03
		h-6.327c-4.142,0-7.5-3.358-7.5-7.5s3.358-7.5,7.5-7.5h6.327c4.142,0,7.5,3.358,7.5,7.5S263.99,121.03,259.848,121.03z"/>
	<path style="fill:#D7B0CD;" d="M381.29,329.688c0-14.604-2.222-28.983-6.43-42.691c-5.142,0.775-10.381,1.254-15.694,1.44
		c0.001,0.072,0.008,0.143,0.007,0.216c-0.077,4.142-3.502,7.458-7.638,7.359c-25.35-0.472-50.172-7.628-71.784-20.695
		c-17.515-10.589-32.625-24.841-44.229-41.631c-11.704,16.934-26.967,31.28-44.673,41.898
		c-21.829,13.091-46.88,20.161-72.445,20.445c-0.028,0-0.057,0-0.085,0c-4.103,0-7.452-3.303-7.498-7.417
		c-0.001-0.073,0.007-0.144,0.009-0.217c-5.296-0.226-10.517-0.742-15.639-1.552c-4.239,13.755-6.48,28.186-6.48,42.845
		c0,51.082,27.07,98.908,70.783,125.312h151.014C354.22,428.596,381.29,380.769,381.29,329.688z M293.932,370.159
		c-2.084,3.58-6.676,4.79-10.256,2.706c-0.078-0.046-0.15-0.099-0.226-0.147c-2.832,4.167-5.974,8.232-9.268,12.127
		c0.037,0.032,0.076,0.06,0.113,0.093c3.054,2.798,3.261,7.542,0.462,10.596c-14.689,16.031-30.697,28.445-35.254,31.868
		c-1.334,1.002-2.92,1.504-4.505,1.504c-1.585,0-3.17-0.501-4.505-1.504c-15.087-11.334-64.312-51.239-64.312-88.861
		c0-22.173,18.039-40.212,40.212-40.212c10.886,0,21.148,4.421,28.604,11.977c7.456-7.555,17.718-11.977,28.604-11.977
		c22.173,0,40.212,18.039,40.212,40.212C303.816,348.261,300.491,358.899,293.932,370.159z"/>
	<path style="fill:#BC6190;" d="M118.236,281.029c45.623-0.507,88.07-25.461,110.776-65.122c1.336-2.334,3.819-3.774,6.509-3.774
		s5.173,1.44,6.509,3.773c22.51,39.317,64.577,64.265,109.785,65.108c4.069,0.076,7.312,3.38,7.352,7.422
		c5.313-0.186,10.552-0.666,15.694-1.44c-9.138-29.768-27.656-56.368-53.239-75.198c-1.681-1.237-2.771-3.12-3.006-5.193
		c-0.235-2.074,0.404-4.153,1.765-5.736c17.519-20.379,27.167-46.419,27.167-73.324C347.546,65.488,297.058,15,235,15
		S122.454,65.488,122.454,127.546c0,26.904,9.648,52.944,27.167,73.324c1.361,1.583,2,3.662,1.765,5.736
		c-0.236,2.074-1.325,3.956-3.006,5.193c-25.538,18.798-44.035,45.338-53.189,75.044c5.122,0.811,10.343,1.326,15.639,1.552
		C110.899,284.353,114.167,281.074,118.236,281.029z M234.999,37.323c37.83,0,69.18,28.194,74.189,64.669
		c0.076,0.359,0.117,0.725,0.139,1.094c0.367,2.999,0.578,6.045,0.578,9.142c0,41.303-33.603,74.905-74.905,74.905
		s-74.905-33.603-74.905-74.905c0-3.096,0.211-6.143,0.578-9.142c0.022-0.369,0.064-0.736,0.139-1.095
		C165.821,65.517,197.17,37.323,234.999,37.323z"/>
	<path style="fill:#3E2C3A;" d="M378.354,255.708c-10.154-19.632-24.464-37.196-41.649-51.193
		c16.715-22.078,25.841-49.115,25.841-76.969C362.546,57.217,305.329,0,235,0S107.454,57.217,107.454,127.546
		c0,27.854,9.126,54.891,25.841,76.969c-17.186,13.997-31.496,31.561-41.649,51.193c-11.734,22.688-17.936,48.27-17.936,73.98
		c0,28.671,7.623,56.83,22.043,81.433c13.991,23.869,34.009,43.875,57.891,57.852c1.149,0.673,2.457,1.027,3.789,1.027h155.136
		c1.332,0,2.639-0.354,3.789-1.027c23.881-13.978,43.9-33.983,57.891-57.852c14.42-24.603,22.043-52.762,22.043-81.433
		C396.29,303.977,390.088,278.395,378.354,255.708z M159.493,455C115.78,428.596,88.71,380.769,88.71,329.688
		c0-14.659,2.241-29.09,6.48-42.845c9.154-29.706,27.651-56.246,53.189-75.044c1.681-1.237,2.771-3.12,3.006-5.193
		c0.235-2.074-0.404-4.153-1.765-5.736c-17.519-20.379-27.167-46.419-27.167-73.324C122.454,65.488,172.942,15,235,15
		s112.546,50.488,112.546,112.546c0,26.904-9.648,52.944-27.167,73.324c-1.361,1.583-2,3.662-1.765,5.736
		c0.236,2.074,1.325,3.956,3.006,5.193c25.582,18.83,44.101,45.43,53.239,75.198c4.208,13.708,6.43,28.087,6.43,42.691
		c0,51.082-27.07,98.908-70.783,125.312H159.493z"/>
	<path style="fill:#3E2C3A;" d="M160.095,112.228c0,41.303,33.603,74.905,74.905,74.905s74.905-33.603,74.905-74.905
		c0-3.096-0.211-6.143-0.578-9.142c-0.022-0.369-0.064-0.735-0.139-1.094C304.179,65.517,272.829,37.323,235,37.323
		c-37.83,0-69.179,28.194-74.188,64.669c-0.076,0.359-0.117,0.726-0.139,1.095C160.306,106.085,160.095,109.132,160.095,112.228z
		 M235,172.133c-33.032,0-59.905-26.874-59.905-59.905c0-1.203,0.046-2.394,0.116-3.58C199.224,97.866,220.02,80.522,235,58.87
		c14.979,21.653,35.775,38.997,59.789,49.779c0.07,1.185,0.116,2.377,0.116,3.58C294.905,145.26,268.032,172.133,235,172.133z
		 M250.178,54.276c18.335,4.806,33.258,18.106,40.314,35.421C274.786,80.845,261.002,68.733,250.178,54.276z M219.82,54.276
		c-10.823,14.456-24.607,26.567-40.312,35.42C186.565,72.382,201.486,59.083,219.82,54.276z"/>
	<path style="fill:#3E2C3A;" d="M351.814,281.015c-45.208-0.843-87.275-25.791-109.785-65.108c-1.336-2.333-3.819-3.773-6.509-3.773
		s-5.173,1.44-6.509,3.774c-22.706,39.661-65.153,64.615-110.776,65.122c-4.068,0.045-7.336,3.324-7.407,7.366
		c-0.001,0.073-0.009,0.144-0.009,0.217c0.046,4.113,3.395,7.417,7.498,7.417c0.028,0,0.057,0,0.085,0
		c25.565-0.284,50.617-7.354,72.445-20.445c17.706-10.618,32.969-24.964,44.673-41.898c11.605,16.791,26.714,31.042,44.229,41.631
		c21.612,13.066,46.434,20.223,71.784,20.695c4.136,0.099,7.561-3.217,7.638-7.359c0.001-0.073-0.006-0.144-0.007-0.216
		C359.126,284.394,355.883,281.09,351.814,281.015z"/>
	<path style="fill:#3E2C3A;" d="M259.848,106.03h-6.327c-4.142,0-7.5,3.358-7.5,7.5s3.358,7.5,7.5,7.5h6.327
		c4.142,0,7.5-3.358,7.5-7.5S263.99,106.03,259.848,106.03z"/>
	<path style="fill:#3E2C3A;" d="M217.521,106.03h-7.368c-4.142,0-7.5,3.358-7.5,7.5s3.358,7.5,7.5,7.5h7.368
		c4.142,0,7.5-3.358,7.5-7.5S221.663,106.03,217.521,106.03z"/>
	<path style="fill:#BC6190;" d="M280.97,362.609c5.207-8.938,7.846-17.036,7.846-24.068c0-13.902-11.31-25.212-25.212-25.212
		c-9.147,0-17.594,4.987-22.045,13.016c-1.322,2.384-3.833,3.864-6.56,3.864s-5.238-1.479-6.56-3.864
		c-4.451-8.029-12.898-13.016-22.045-13.016c-13.902,0-25.212,11.31-25.212,25.212c0,27.926,39.559,61.997,53.823,73.374
		c6.637-5.276,18.043-14.892,28.694-26.515c2.765-3.017,7.427-3.25,10.483-0.556c3.294-3.895,6.436-7.96,9.268-12.127
		C280.052,370.573,278.931,366.11,280.97,362.609z"/>
	<path style="fill:#3E2C3A;" d="M263.604,298.329c-10.886,0-21.148,4.421-28.604,11.977c-7.456-7.555-17.718-11.977-28.604-11.977
		c-22.173,0-40.212,18.039-40.212,40.212c0,37.622,49.225,77.527,64.312,88.861c1.334,1.003,2.919,1.504,4.505,1.504
		c1.585,0,3.171-0.501,4.505-1.504c4.557-3.423,20.564-15.837,35.254-31.868c2.799-3.054,2.592-7.798-0.462-10.596
		c-0.036-0.033-0.076-0.061-0.113-0.093c-3.056-2.694-7.718-2.462-10.483,0.556c-10.651,11.623-22.057,21.239-28.694,26.515
		c-14.264-11.377-53.823-45.448-53.823-73.374c0-13.902,11.31-25.212,25.212-25.212c9.147,0,17.594,4.987,22.045,13.016
		c1.322,2.384,3.833,3.864,6.56,3.864s5.238-1.479,6.56-3.864c4.451-8.029,12.898-13.016,22.045-13.016
		c13.902,0,25.212,11.31,25.212,25.212c0,7.032-2.64,15.13-7.846,24.068c-2.039,3.501-0.918,7.964,2.48,10.109
		c0.076,0.048,0.147,0.102,0.226,0.147c3.58,2.083,8.172,0.874,10.256-2.706c6.559-11.26,9.884-21.898,9.884-31.618
		C303.816,316.368,285.777,298.329,263.604,298.329z"/>
</g>
</svg>