<?xml version="1.0" encoding="utf-8"?><!-- Uploaded to: SVG Repo, www.svgrepo.com, Generator: SVG Repo Mixer Tools -->
<svg fill="#000000" width="800px" height="800px" viewBox="0 0 24 24" id="window-2" data-name="Flat Line" xmlns="http://www.w3.org/2000/svg" class="icon flat-line"><path id="secondary" d="M6,3H18a1,1,0,0,1,1,1V21a0,0,0,0,1,0,0H5a0,0,0,0,1,0,0V4A1,1,0,0,1,6,3Z" style="fill: rgb(44, 169, 188); stroke-width: 2;"></path><path id="primary" d="M12,3V21m7-9H5M19,4a1,1,0,0,0-1-1H6A1,1,0,0,0,5,4V21H19Z" style="fill: none; stroke: rgb(0, 0, 0); stroke-linecap: round; stroke-linejoin: round; stroke-width: 2;"></path></svg>