<!DOCTYPE svg PUBLIC "-//W3C//DTD SVG 1.1//EN" "http://www.w3.org/Graphics/SVG/1.1/DTD/svg11.dtd">
<!-- Uploaded to: SVG Repo, www.svgrepo.com, Transformed by: SVG Repo Mixer Tools -->
<svg height="800px" width="800px" version="1.1" id="Layer_1" xmlns="http://www.w3.org/2000/svg" xmlns:xlink="http://www.w3.org/1999/xlink" viewBox="0 0 512 512" xml:space="preserve" fill="#000000">
<g id="SVGRepo_bgCarrier" stroke-width="0"/>
<g id="SVGRepo_tracerCarrier" stroke-linecap="round" stroke-linejoin="round"/>
<g id="SVGRepo_iconCarrier"> <path style="fill:#000000;" d="M92.08,354.281c-3.861,0-7.708-1.572-10.499-4.663c-5.236-5.796-4.78-14.738,1.016-19.973 c10.662-9.631,27.683-36.62,33.955-50.116c3.291-7.082,11.702-10.154,18.784-6.865c7.083,3.291,10.156,11.701,6.865,18.784 c-6.46,13.9-25.567,45.566-40.647,59.186C98.849,353.077,95.459,354.281,92.08,354.281z"/> <path style="opacity:0.2;enable-background:new ;" d="M135.336,272.664c-7.082-3.289-15.493-0.217-18.784,6.865 c-5.504,11.844-19.286,34.079-29.785,45.854c6.741,0.846,13.69,1.481,20.643,2.208c4.371,0.458,8.554,0.818,12.573,1.083 c9.593-13.595,18.271-28.729,22.219-37.227C145.493,284.365,142.419,275.955,135.336,272.664z"/> <path style="fill:#000000;" d="M419.919,354.281c3.861,0,7.708-1.572,10.499-4.663c5.236-5.796,4.78-14.738-1.016-19.973 c-10.662-9.631-27.683-36.62-33.955-50.116c-3.291-7.082-11.702-10.154-18.784-6.865c-7.082,3.291-10.156,11.701-6.865,18.784 c6.46,13.9,25.567,45.566,40.647,59.186C413.15,353.077,416.54,354.281,419.919,354.281z"/> <path style="opacity:0.2;enable-background:new ;" d="M376.663,272.664c7.082-3.289,15.493-0.217,18.784,6.865 c5.504,11.844,19.286,34.079,29.785,45.854c-6.741,0.846-13.69,1.481-20.643,2.208c-4.371,0.458-8.554,0.818-12.573,1.083 c-9.593-13.595-18.271-28.729-22.219-37.227C366.507,284.365,369.581,275.955,376.663,272.664z"/> <g> <path style="fill:#000000;" d="M393.701,181.47c-28.496-3.846-86.444-7.933-137.702-7.933c-51.259,0-109.205,4.087-137.702,7.933 l-2.115-15.676c29.007-3.914,87.868-8.076,139.817-8.076c51.95,0,110.809,4.16,139.817,8.076L393.701,181.47z"/> <path style="fill:#000000;" d="M290.413,217.082c-5.876,0-11.17-2.426-16.773-4.994c-5.593-2.564-11.376-5.215-17.639-5.215 c-6.263,0-12.047,2.651-17.64,5.215c-5.604,2.568-10.896,4.994-16.772,4.994v-15.818c2.423,0,6.192-1.727,10.181-3.556 c6.467-2.964,14.516-6.653,24.231-6.653c9.715,0,17.763,3.689,24.23,6.653c3.99,1.829,7.759,3.556,10.182,3.556V217.082z"/> </g> <path style="fill:#394049;" d="M117.24,173.632c-53.69,6.103-89.988,12.644-89.988,69.087s40.041,57.538,80.158,61.736 c65.034,6.806,89.988-7.017,108.137-61.736S214.166,162.614,117.24,173.632z"/> <path style="opacity:0.15;fill:#FFFFFF;enable-background:new ;" d="M117.24,173.632c-53.69,6.103-89.988,12.644-89.988,69.087 c0,18.444,4.277,30.976,11.434,39.638l111.158-111.158C140.118,171.458,129.277,172.264,117.24,173.632z"/> <path style="opacity:0.2;enable-background:new ;" d="M117.24,173.632c-53.69,6.103-89.988,12.644-89.988,69.087 c0,9.558,1.152,17.525,3.254,24.193c-0.295-3.075-0.449-6.344-0.449-9.826c0-56.442,36.298-62.984,89.988-69.087 c62.416-7.095,92.732,0.91,101.563,22.119C220.856,178.367,192.195,165.112,117.24,173.632z"/> <path style="fill:#000000;" d="M134.134,313.919c-8.392,0-17.54-0.55-27.547-1.599c-1.977-0.207-3.954-0.406-5.927-0.605 c-38.116-3.843-81.316-8.199-81.316-68.996c0-29.347,9.122-48.478,28.705-60.206c17.137-10.263,40.082-13.532,68.298-16.738 l0.893,7.858l-0.893-7.858c56.175-6.382,89.274-0.809,104.173,17.546c11.17,13.759,11.974,33.425,2.533,61.889 C206.604,294.802,183.534,313.918,134.134,313.919z M118.133,181.49c-26.288,2.987-47.543,5.959-61.958,14.592 c-14.533,8.704-21.015,23.087-21.015,46.636c0,28.065,10.806,37.652,18.934,42.422c12.306,7.222,29.718,8.978,48.152,10.836 c1.992,0.2,3.989,0.403,5.987,0.611c61.544,6.442,82.995-5.673,99.807-56.359c11.11-33.499,2.898-43.616,0.199-46.941 C197.37,179.9,167.053,175.929,118.133,181.49L118.133,181.49z"/> <path style="fill:#394049;" d="M394.759,173.632c53.69,6.103,89.988,12.644,89.988,69.087s-40.041,57.538-80.158,61.736 c-65.034,6.806-89.988-7.017-108.137-61.736C278.304,188,297.833,162.614,394.759,173.632z"/> <path style="opacity:0.15;fill:#FFFFFF;enable-background:new ;" d="M459.242,188.924l-113.24,113.239 c14.962,4.481,33.88,4.877,58.587,2.292c40.116-4.198,80.158-5.294,80.158-61.736C484.747,214.118,475.423,198.334,459.242,188.924z "/> <path style="opacity:0.2;enable-background:new ;" d="M394.759,173.632c53.69,6.103,89.988,12.644,89.988,69.087 c0,9.558-1.152,17.525-3.254,24.193c0.295-3.075,0.449-6.344,0.449-9.826c0-56.442-36.298-62.984-89.988-69.087 c-62.416-7.095-92.731,0.91-101.563,22.119C291.144,178.367,319.805,165.112,394.759,173.632z"/> <g> <path style="fill:#000000;" d="M377.866,313.919c-49.408,0.002-72.469-19.113-88.919-68.711 c-9.441-28.465-8.635-48.131,2.533-61.889c14.9-18.355,48.004-23.931,104.172-17.546c28.216,3.207,51.161,6.477,68.298,16.738 c19.585,11.728,28.706,30.86,28.706,60.206c0,60.799-43.201,65.154-81.315,68.996c-1.973,0.199-3.95,0.399-5.927,0.605 C395.409,313.368,386.254,313.919,377.866,313.919z M355.765,179.054c-26.881,0-44.311,4.757-52.004,14.235 c-2.699,3.325-10.911,13.442,0.199,46.941c16.811,50.686,38.269,62.802,99.808,56.359c1.996-0.209,3.993-0.41,5.987-0.611 c18.433-1.858,35.844-3.614,48.151-10.836c8.128-4.77,18.934-14.357,18.934-42.422c0-23.55-6.481-37.932-21.015-46.636 c-14.416-8.633-35.67-11.604-61.957-14.593l0,0C379.573,179.865,366.861,179.054,355.765,179.054z"/> <path style="fill:#000000;" d="M29.173,230.492H7.909c-4.368,0-7.909-3.541-7.909-7.909s3.541-7.909,7.909-7.909h21.264 c4.368,0,7.909,3.541,7.909,7.909S33.541,230.492,29.173,230.492z"/> <path style="fill:#000000;" d="M504.091,230.492h-21.264c-4.368,0-7.909-3.541-7.909-7.909s3.541-7.909,7.909-7.909h21.264 c4.369,0,7.909,3.541,7.909,7.909S508.46,230.492,504.091,230.492z"/> </g> </g>
</svg>